<svg xmlns="http://www.w3.org/2000/svg" xmlns:xlink="http://www.w3.org/1999/xlink" width="100" height="30" viewBox="0 0 100 30">
    <defs>
        <path id="mskdk2q9fa" d="M0.024 0.19L26.227 0.19 26.227 17.2 0.024 17.2z"/>
        <path id="1r5vmt5djc" d="M0 0.223L28.651 0.223 28.651 15.127 0 15.127z"/>
        <path id="ylmu31whke" d="M0.125 0.053L4.823 0.053 4.823 9.997 0.125 9.997z"/>
        <path id="p4jcu9l6cg" d="M0 29.377L99.623 29.377 99.623 0.4 0 0.4z"/>
    </defs>
    <g fill="none" fill-rule="evenodd">
        <g>
            <g transform="translate(-140 -183) translate(140 183)">
                <g transform="translate(1.2 12.177)">
                    <mask id="5vzjz58v2b" fill="#fff">
                        <use xlink:href="#mskdk2q9fa"/>
                    </mask>
                    <path fill="#FEFEFE" d="M15.286 5.672c-.795.828-1.523 1.742-2.16 2.732-.643-.99-1.366-1.899-2.16-2.727C8.04 2.63 4.153.71.023.19l.903 8.83c.234 2.322 1.77 4.31 3.959 5.122l8.24 3.058 8.24-3.058c2.188-.812 3.724-2.8 3.958-5.122l.903-8.83c-4.128.52-8.016 2.44-10.941 5.482" mask="url(#5vzjz58v2b)"/>
                </g>
                <g transform="translate(0 .177)">
                    <mask id="hlr5uglcrd" fill="#fff">
                        <use xlink:href="#1r5vmt5djc"/>
                    </mask>
                    <path fill="#FEFEFE" d="M27.772 8.81l.879-8.587H0L.878 8.81c5.048.457 9.841 2.678 13.447 6.318 3.606-3.637 8.4-5.86 13.447-6.317" mask="url(#hlr5uglcrd)"/>
                </g>
                <path fill="#FEFEFE" d="M35.644 2.244c.766 0 1.35.215 1.753.645.402.43.603 1.043.603 1.838v5.076c0 .795-.201 1.405-.603 1.83-.402.426-.987.639-1.753.639-.767 0-1.352-.213-1.753-.638-.402-.426-.603-1.036-.603-1.83V8.666h1.556v1.235c0 .355.073.605.218.75.144.145.338.217.582.217.243 0 .436-.072.582-.217.144-.145.217-.395.217-.75V4.628c0-.355-.073-.607-.217-.757-.146-.15-.34-.225-.582-.225-.244 0-.438.075-.582.225-.145.15-.218.402-.218.757v.94h-1.556v-.841c0-.795.2-1.408.603-1.838.401-.43.986-.645 1.753-.645M43.834 4.88c0 .188-.016.377-.05.569-.032.191-.083.367-.154.525-.07.16-.158.3-.266.422-.108.12-.236.21-.386.266.15.056.278.145.386.266.108.122.197.264.266.428.07.164.122.34.155.526.033.187.049.374.049.561v1.36c0 .795-.204 1.405-.61 1.83-.407.426-.989.639-1.746.639-.767 0-1.351-.213-1.753-.638-.403-.426-.603-1.036-.603-1.83V8.668h1.556v1.234c0 .355.073.608.218.757.144.15.338.225.582.225.243 0 .437-.076.582-.225.145-.15.217-.402.217-.757V8.345c0-.355-.072-.608-.217-.757-.145-.15-.339-.225-.582-.225h-.28V5.961h.28c.243 0 .437-.075.582-.225.145-.15.217-.402.217-.757v-.35c0-.356-.072-.606-.217-.751-.145-.145-.339-.218-.582-.218-.244 0-.438.073-.582.218-.145.145-.218.395-.218.75v.477h-1.556v-.379c0-.794.2-1.407.603-1.837.402-.43.986-.645 1.753-.645.757 0 1.34.215 1.746.645.406.43.61 1.043.61 1.837v.155zM44.956 12.174V4.712c0-.794.194-1.406.582-1.837.388-.43.96-.645 1.718-.645.14 0 .287.01.442.028.154.02.315.035.483.05.169.013.341.02.519.02.169 0 .337-.018.505-.056v1.36c-.121.038-.271.057-.449.057-.056.01-.116.014-.182.014-.112 0-.23-.005-.35-.014-.188-.01-.365-.021-.534-.035-.168-.014-.299-.022-.392-.022-.234 0-.426.076-.575.225-.15.15-.225.402-.225.757v1.641c.103-.093.232-.17.386-.231.154-.06.339-.092.554-.092.28 0 .554.048.82.141.267.093.503.24.709.442.205.201.371.458.498.771.126.313.189.69.189 1.13v3.758h-1.543V8.317c0-.355-.072-.605-.217-.75-.145-.145-.344-.218-.596-.218-.244 0-.438.073-.582.217-.145.146-.218.396-.218.75v3.858h-1.542zM56.077 2.23c.757 0 1.325.215 1.704.645.38.43.568 1.043.568 1.837v7.462h-1.543v-7.56c0-.355-.068-.607-.203-.757-.136-.15-.31-.225-.526-.225-.215 0-.39.076-.526.225-.135.15-.203.402-.203.757v2.637h-1.557V4.614c0-.355-.068-.607-.203-.757-.136-.15-.311-.225-.526-.225-.215 0-.39.076-.526.225-.136.15-.204.402-.204.757v7.56H50.79V4.712c0-.794.19-1.407.568-1.837.379-.43.946-.645 1.704-.645.299 0 .589.063.87.19.28.126.49.32.63.582h.015c.14-.262.348-.456.623-.582.276-.127.568-.19.877-.19M64.184 4.88c0 .188-.017.377-.05.569-.032.191-.084.367-.154.525-.07.16-.159.3-.266.422-.108.12-.236.21-.386.266.15.056.278.145.386.266.107.122.196.264.266.428.07.164.122.34.154.526.033.187.05.374.05.561v1.36c0 .795-.204 1.405-.61 1.83-.407.426-.99.639-1.746.639-.767 0-1.352-.213-1.754-.638-.402-.426-.603-1.036-.603-1.83V8.668h1.557v1.234c0 .355.072.608.218.757.144.15.338.225.582.225.243 0 .436-.076.582-.225.144-.15.217-.402.217-.757V8.345c0-.355-.073-.608-.217-.757-.146-.15-.34-.225-.582-.225h-.421V5.961h.42c.244 0 .437-.075.583-.225.144-.15.217-.402.217-.757v-.35c0-.356-.073-.606-.217-.751-.146-.145-.34-.218-.582-.218V2.244c.757 0 1.339.215 1.746.645.406.43.61 1.043.61 1.837v.155zM65.305 12.174V4.712c0-.794.194-1.406.582-1.837.388-.43.961-.645 1.718-.645.14 0 .288.01.442.028.155.02.316.035.484.05.168.013.341.02.519.02.168 0 .336-.018.505-.056v1.36c-.122.038-.271.057-.449.057-.056.01-.117.014-.182.014-.113 0-.23-.005-.351-.014-.187-.01-.365-.021-.533-.035-.168-.014-.3-.022-.392-.022-.234 0-.426.076-.576.225-.15.15-.224.402-.224.757v1.641c.103-.093.232-.17.386-.231.154-.06.338-.092.554-.092.28 0 .554.048.82.141.267.093.502.24.708.442.206.201.372.458.498.771.127.313.19.69.19 1.13v3.758H68.46V8.317c0-.355-.073-.605-.218-.75-.145-.145-.343-.218-.595-.218-.244 0-.438.073-.583.217-.145.146-.217.396-.217.75v3.858h-1.543zM73.482 2.244c.766 0 1.35.215 1.753.645.402.43.603 1.043.603 1.838v5.076c0 .795-.201 1.405-.603 1.83-.402.426-.987.639-1.753.639-.767 0-1.351-.213-1.753-.638-.402-.426-.603-1.036-.603-1.83V8.666h1.556v1.235c0 .355.073.605.218.75.144.145.338.217.582.217.243 0 .437-.072.582-.217.145-.145.217-.395.217-.75V4.628c0-.355-.072-.607-.217-.757-.145-.15-.34-.225-.582-.225-.244 0-.438.075-.582.225-.145.15-.218.402-.218.757v.94h-1.556v-.841c0-.795.2-1.408.603-1.838.402-.43.986-.645 1.753-.645M78.516 6.255c0 .356.073.606.218.75.145.146.339.218.582.218.243 0 .437-.072.582-.218.145-.144.217-.394.217-.75v-1.64c0-.356-.072-.608-.217-.758-.145-.15-.34-.224-.582-.224-.243 0-.437.074-.582.224-.145.15-.218.402-.218.757v1.641zm.8 2.384c-.178 0-.342-.03-.491-.09-.15-.061-.285-.143-.407-.246v.028c0 .15.028.301.084.456.056.154.22.306.491.456l.014.014c.318.177.606.385.863.624.257.238.477.486.659.743.182.257.327.519.435.785.107.267.17.522.189.764h-1.557c-.103-.373-.266-.689-.49-.946-.225-.257-.475-.46-.751-.61-.276-.15-.564-.252-.862-.308-.197-.038-.389-.057-.575-.057-.094 0-.183.005-.267.014V8.723c.066-.009.13-.014.196-.014h.197c-.057-.149-.085-.322-.085-.518V4.713c0-.795.204-1.408.61-1.838.407-.43.99-.645 1.747-.645.757 0 1.337.215 1.739.645.402.43.603 1.043.603 1.838v1.444c0 .795-.201 1.407-.603 1.837-.402.43-.982.645-1.74.645zM82.78 12.174V4.712c0-.794.2-1.406.603-1.837.402-.43.982-.645 1.739-.645.767 0 1.351.215 1.753.645.402.43.603 1.043.603 1.837v7.462h-1.542v-7.56c0-.355-.073-.607-.218-.757-.145-.15-.344-.225-.596-.225-.243 0-.437.076-.582.225-.145.15-.218.402-.218.757v7.56H82.78zM92.148 4.151c.103 0 .192-.037.266-.112.075-.074.113-.163.113-.266 0-.103-.038-.19-.113-.26-.074-.07-.163-.105-.266-.105-.103 0-.19.035-.26.105-.07.07-.104.157-.104.26 0 .103.034.192.105.266.07.075.156.112.259.112m1.192.52c.131.102.241.254.33.455.088.201.133.428.133.68v3.997c0 .393-.063.744-.19 1.052-.126.309-.306.568-.54.779-.233.21-.509.37-.827.476-.318.108-.668.162-1.052.162-.383 0-.734-.054-1.052-.162-.318-.107-.593-.266-.827-.476-.233-.21-.413-.47-.54-.779-.126-.308-.19-.659-.19-1.052v-7.46h1.557V9.9c0 .178.033.328.099.45.065.12.147.222.245.3.098.08.21.136.337.17.126.032.25.048.371.048.122 0 .246-.016.372-.049s.239-.089.336-.168c.099-.08.18-.18.246-.301.065-.122.098-.272.098-.45V5.61c0-.15-.07-.225-.21-.225-.131 0-.196.076-.196.225v.968h-1.29v-.772c0-.252.032-.479.097-.68.066-.2.169-.362.309-.484-.13-.112-.22-.245-.266-.4-.047-.154-.07-.31-.07-.47 0-.205.04-.4.119-.588.079-.187.189-.35.33-.49.14-.141.3-.25.483-.33.182-.08.38-.12.596-.12.215 0 .416.04.603.12.187.08.351.189.491.33.14.14.25.303.33.49.079.187.119.383.119.589 0 .411-.117.71-.351.897"/>
                <g transform="translate(94.8 2.177)">
                    <mask id="0w1ly8qnkf" fill="#fff">
                        <use xlink:href="#ylmu31whke"/>
                    </mask>
                    <path fill="#FEFEFE" d="M.125 9.997V2.536c0-.795.2-1.407.603-1.838.402-.43.982-.645 1.739-.645.767 0 1.351.215 1.753.645.402.43.603 1.043.603 1.838v7.46H3.28V2.439c0-.356-.073-.608-.218-.758-.145-.15-.344-.224-.596-.224-.243 0-.437.075-.582.224-.145.15-.218.402-.218.758v7.559H.125z" mask="url(#0w1ly8qnkf)"/>
                </g>
                <path fill="#FEFEFE" d="M34.968 18.543L37.277 18.543 37.277 20.072 34.968 20.072 34.968 22.812 37.872 22.812 37.872 24.34 33.287 24.34 33.287 14.427 37.872 14.427 37.872 15.956 34.968 15.956zM41.785 14.427v7.468c0 .387.08.657.237.81.158.153.37.23.634.23.265 0 .477-.077.635-.23.158-.153.237-.423.237-.81v-7.468h1.59v7.36c0 .867-.212 1.532-.635 1.995-.423.464-1.047.695-1.873.695-.825 0-1.45-.23-1.872-.695-.423-.463-.634-1.128-.634-1.995v-7.36h1.681zM49.214 15.956v2.893h.657c.315 0 .563-.081.741-.245.178-.162.268-.458.268-.886v-.662c0-.387-.07-.667-.206-.84-.138-.174-.355-.26-.65-.26h-.81zm1.834 8.384c-.02-.07-.04-.137-.061-.198-.021-.062-.039-.138-.054-.23s-.025-.208-.03-.351c-.006-.143-.008-.321-.008-.535v-1.288c0-.5-.087-.85-.26-1.055-.173-.204-.453-.306-.84-.306h-.581v3.963h-1.682v-9.912h2.538c.876 0 1.51.203 1.902.61.392.409.59 1.025.59 1.85v.448c0 1.1-.368 1.824-1.101 2.17.427.174.72.456.878.848.158.393.237.87.237 1.43v1.257c0 .265.01.497.03.695.021.2.072.4.154.604h-1.712zM56.43 21.88c0 .387.079.66.236.817.158.158.37.237.635.237s.476-.079.634-.237c.158-.158.237-.43.237-.818v-4.99c0-.388-.079-.66-.237-.818-.158-.158-.37-.237-.634-.237-.265 0-.477.079-.635.237-.157.158-.237.43-.237.817v4.991zm-1.682-4.885c0-.866.219-1.53.657-1.994.438-.464 1.07-.696 1.896-.696.825 0 1.457.232 1.895.696.438.463.657 1.128.657 1.994v4.777c0 .867-.219 1.531-.657 1.995-.438.464-1.07.696-1.895.696-.826 0-1.458-.232-1.896-.696-.438-.464-.657-1.128-.657-1.995v-4.777zM67.104 20.351v1.421c0 .867-.212 1.532-.634 1.995-.423.464-1.047.696-1.873.696-.825 0-1.45-.232-1.872-.696-.423-.463-.634-1.128-.634-1.995v-4.777c0-.866.211-1.53.634-1.994.423-.464 1.047-.696 1.872-.696.826 0 1.45.232 1.873.696.422.463.634 1.128.634 1.994v1.04h-1.59v-1.147c0-.387-.078-.66-.236-.817-.158-.158-.37-.237-.634-.237-.266 0-.477.079-.635.237-.158.158-.237.43-.237.817v4.992c0 .387.079.657.237.81.158.152.369.229.635.229.264 0 .476-.077.634-.23.158-.152.237-.422.237-.81v-1.528h1.589zM71.18 15.956v2.893h.658c.315 0 .563-.081.74-.245.179-.162.268-.458.268-.886v-.662c0-.387-.069-.667-.206-.84-.138-.174-.354-.26-.65-.26h-.81zm1.835 8.384c-.021-.07-.041-.137-.062-.198-.02-.062-.038-.138-.053-.23s-.026-.208-.03-.351c-.006-.143-.008-.321-.008-.535v-1.288c0-.5-.087-.85-.26-1.055-.173-.204-.454-.306-.841-.306h-.58v3.963h-1.682v-9.912h2.537c.876 0 1.51.203 1.903.61.392.409.589 1.025.589 1.85v.448c0 1.1-.367 1.824-1.1 2.17.427.174.72.456.878.848.158.393.237.87.237 1.43v1.257c0 .265.01.497.03.695.02.2.072.4.153.604h-1.711zM78.64 18.543L80.948 18.543 80.948 20.072 78.64 20.072 78.64 22.812 81.544 22.812 81.544 24.34 76.958 24.34 76.958 14.427 81.544 14.427 81.544 15.956 78.64 15.956zM85.456 15.956v6.856h.948c.264 0 .474-.077.626-.23.153-.152.23-.422.23-.81v-4.777c0-.387-.077-.657-.23-.81-.152-.153-.362-.229-.626-.229h-.948zm-1.681-1.528h2.66c.845 0 1.474.224 1.887.672.412.448.62 1.106.62 1.972v4.624c0 .866-.208 1.524-.62 1.972-.413.448-1.042.672-1.888.672h-2.66v-9.912z"/>
                <mask id="d830adrr9h" fill="#fff">
                    <use xlink:href="#p4jcu9l6cg"/>
                </mask>
                <path fill="#FEFEFE" d="M91.137 24.34L92.818 24.34 92.818 14.428 91.137 14.428zM94.426 14.427L99.623 14.427 99.623 15.956 97.865 15.956 97.865 24.34 96.184 24.34 96.184 15.956 94.426 15.956z" mask="url(#d830adrr9h)"/>
            </g>
        </g>
    </g>
</svg>
