<svg xmlns="http://www.w3.org/2000/svg" width="100" height="66" viewBox="0 0 100 66">
    <g fill="none" fill-rule="evenodd">
        <g fill-rule="nonzero">
            <g>
                <path fill="#FF5F00" d="M36.644 11.47H62.902V54.356H36.644z" transform="translate(-1200 -3306) translate(1200 3306)"/>
                <path fill="#EB001B" d="M39.348 32.917c-.006-8.368 3.835-16.274 10.417-21.44-11.182-8.788-27.24-7.508-36.888 2.94-9.649 10.45-9.649 26.558 0 37.006 9.648 10.448 25.706 11.728 36.888 2.94-6.584-5.167-10.425-13.076-10.417-21.446z" transform="translate(-1200 -3306) translate(1200 3306)"/>
                <path fill="#F79E1B" d="M91.288 49.818v-.879h.379v-.181h-.902v.181h.356v.88h.167zm1.75 0v-1.06h-.273l-.318.757-.318-.757h-.273v1.06h.197v-.803l.295.69h.205l.295-.69v.803h.19zM93.894 32.917c0 10.442-5.963 19.967-15.355 24.53-9.392 4.563-20.565 3.363-28.774-3.09 6.58-5.172 10.42-13.076 10.42-21.444 0-8.368-3.84-16.273-10.42-21.443 8.209-6.454 19.382-7.654 28.774-3.091s15.355 14.088 15.355 24.53v.008z" transform="translate(-1200 -3306) translate(1200 3306)"/>
            </g>
        </g>
    </g>
</svg>
