<svg xmlns="http://www.w3.org/2000/svg" xmlns:xlink="http://www.w3.org/1999/xlink" width="18.241" height="18.272" viewBox="0 0 18.241 18.272"><defs><clipPath id="a"><path d="M15.5,18.262a17.309,17.309,0,0,1-7.548-2.684A17.067,17.067,0,0,1,2.7,10.328,17.342,17.342,0,0,1,.01,2.725,2.5,2.5,0,0,1,2.5,0H4.99a2.5,2.5,0,0,1,2.5,2.158,9.834,9.834,0,0,0,.537,2.157,2.5,2.5,0,0,1-.566,2.641l-.6.6a12.5,12.5,0,0,0,3.821,3.821l.6-.6a2.5,2.5,0,0,1,2.635-.562,9.883,9.883,0,0,0,2.167.538,2.5,2.5,0,0,1,2.15,2.526v2.488a2.5,2.5,0,0,1-2.507,2.509Q15.617,18.272,15.5,18.262Z" transform="translate(591.5 2260.5)"/></clipPath></defs><g transform="translate(-591.5 -2260.5)"><path d="M15.5,18.262a17.309,17.309,0,0,1-7.548-2.684A17.067,17.067,0,0,1,2.7,10.328,17.342,17.342,0,0,1,.01,2.725,2.5,2.5,0,0,1,2.5,0H4.99a2.5,2.5,0,0,1,2.5,2.158,9.834,9.834,0,0,0,.537,2.157,2.5,2.5,0,0,1-.566,2.641l-.6.6a12.5,12.5,0,0,0,3.821,3.821l.6-.6a2.5,2.5,0,0,1,2.635-.562,9.883,9.883,0,0,0,2.167.538,2.5,2.5,0,0,1,2.15,2.526v2.488a2.5,2.5,0,0,1-2.507,2.509Q15.617,18.272,15.5,18.262Z" transform="translate(591.5 2260.5)"/><g clip-path="url(#a)"><g transform="translate(590.5 2259.5)"><rect width="20" height="20" fill="#258aff"/></g></g></g></svg>