<svg xmlns="http://www.w3.org/2000/svg" xmlns:xlink="http://www.w3.org/1999/xlink" width="16.667" height="20" viewBox="0 0 16.667 20"><defs><clipPath id="a"><path d="M8.334,20a.831.831,0,0,1-.463-.139c-.074-.049-.2-.136-.348-.244-.284-.206-.581-.431-.881-.67A25.9,25.9,0,0,1,3.978,16.51C1.338,13.724,0,10.973,0,8.333a8.334,8.334,0,0,1,16.667,0c0,2.64-1.339,5.391-3.979,8.177a25.9,25.9,0,0,1-2.664,2.435c-.3.24-.6.466-.881.67-.124.09-.244.174-.347.244A.83.83,0,0,1,8.334,20Zm0-18.333A6.674,6.674,0,0,0,1.667,8.333c0,2.2,1.185,4.564,3.522,7.032a24.345,24.345,0,0,0,2.492,2.278c.23.182.45.351.652.5.214-.158.434-.327.653-.5a24.458,24.458,0,0,0,2.492-2.278C13.815,12.9,15,10.532,15,8.333A6.674,6.674,0,0,0,8.333,1.667Zm0,10a3.333,3.333,0,1,1,3.334-3.334A3.337,3.337,0,0,1,8.333,11.667Zm0-5A1.667,1.667,0,1,0,10,8.333,1.669,1.669,0,0,0,8.333,6.666Z" transform="translate(-781.5 1148.5)"/></clipPath></defs><g transform="translate(781.5 -1148.5)"><path d="M8.334,20a.831.831,0,0,1-.463-.139c-.074-.049-.2-.136-.348-.244-.284-.206-.581-.431-.881-.67A25.9,25.9,0,0,1,3.978,16.51C1.338,13.724,0,10.973,0,8.333a8.334,8.334,0,0,1,16.667,0c0,2.64-1.339,5.391-3.979,8.177a25.9,25.9,0,0,1-2.664,2.435c-.3.24-.6.466-.881.67-.124.09-.244.174-.347.244A.83.83,0,0,1,8.334,20Zm0-18.333A6.674,6.674,0,0,0,1.667,8.333c0,2.2,1.185,4.564,3.522,7.032a24.345,24.345,0,0,0,2.492,2.278c.23.182.45.351.652.5.214-.158.434-.327.653-.5a24.458,24.458,0,0,0,2.492-2.278C13.815,12.9,15,10.532,15,8.333A6.674,6.674,0,0,0,8.333,1.667Zm0,10a3.333,3.333,0,1,1,3.334-3.334A3.337,3.337,0,0,1,8.333,11.667Zm0-5A1.667,1.667,0,1,0,10,8.333,1.669,1.669,0,0,0,8.333,6.666Z" transform="translate(-781.5 1148.5)"/><g clip-path="url(#a)"><g transform="translate(-783.5 1148.5)"><rect width="20" height="20" fill="#258aff"/></g></g></g></svg>