<svg xmlns="http://www.w3.org/2000/svg" xmlns:xlink="http://www.w3.org/1999/xlink" width="1440" height="968.727" viewBox="0 0 1440 968.727">
  <defs>
    <style>
      .cls-1 {
        fill: url(#linear-gradient);
      }
    </style>
    <linearGradient id="linear-gradient" x1="0.243" y1="0.253" x2="1.214" y2="1.491" gradientUnits="objectBoundingBox">
      <stop offset="0" stop-color="#05051a" stop-opacity="0"/>
      <stop offset="0.517" stop-color="#054469" stop-opacity="0.416"/>
      <stop offset="0.628" stop-color="#04628e" stop-opacity="0.604"/>
      <stop offset="1" stop-color="#049ed9"/>
    </linearGradient>
  </defs>
  <path id="Fill_1" data-name="Fill 1" class="cls-1" d="M1440,137.75V541.514c0,235.554-192.526,427.213-429.178,427.213A428.672,428.672,0,0,1,720.035,855.375a429.611,429.611,0,0,1-583.706-2.009C52.55,775.365,0,664.476,0,541.514V137.75C0,61.687,61.976,0,138.445,0,214.86,0,276.836,61.687,276.836,137.75V541.514c0,83.61,68.333,151.713,152.407,151.713,84,0,152.348-68.1,152.348-151.713V137.75C581.591,61.687,643.567,0,720.035,0c76.41,0,138.38,61.687,138.38,137.75V541.514c0,83.61,68.344,151.66,152.407,151.66,84.009,0,152.354-68.05,152.354-151.66V137.75C1163.176,61.687,1225.146,0,1301.62,0,1378.024,0,1440,61.687,1440,137.75"/>
</svg>
