<svg xmlns="http://www.w3.org/2000/svg" xmlns:xlink="http://www.w3.org/1999/xlink" width="24" height="27" viewBox="0 0 24 27">
    <defs>
        <path id="opoz7b8bpa" d="M0 0.103L23.965 0.103 23.965 26.336 0 26.336z"/>
        <path id="70dlckw2ec" d="M0.069 0.018L9.098 0.018 9.098 7.41 0.069 7.41z"/>
    </defs>
    <g fill="none" fill-rule="evenodd">
        <g>
            <g>
                <g>
                    <g>
                        <g transform="translate(-266 -1020) translate(139 998) translate(100) translate(27 22) translate(0 .003)">
                            <mask id="o63f32qunb" fill="#fff">
                                <use xlink:href="#opoz7b8bpa"/>
                            </mask>
                            <path fill="#FFF" d="M14.936 13.235c1.328 1.254 2.609 2.473 3.906 3.673.084.078.327.076.444.013 1.185-.634 2.366-1.275 3.533-1.942 1.513-.865 1.535-2.456.027-3.357-1.183-.708-2.402-1.356-3.617-2.008-.124-.067-.391-.043-.49.049-1.262 1.163-2.504 2.346-3.803 3.572m-1.18-1.128l3.666-3.483c-.164-.104-.278-.184-.4-.252-1.514-.842-3.03-1.682-4.544-2.525L2.745.432C2.28.172 1.8 0 1.18.172l12.577 11.935m-.037 2.254L1.144 26.262c.726.206 1.264-.053 1.794-.343 4.077-2.227 8.154-4.454 12.23-6.683.765-.42 1.524-.852 2.324-1.299l-3.772-3.576m-1.16-1.127L0 1.294v23.834l12.56-11.894" mask="url(#o63f32qunb)"/>
                        </g>
                        <path fill="#FFF" d="M12.56 13.237L0 25.13V1.297l12.56 11.94M13.72 14.365l3.772 3.575c-.8.447-1.559.88-2.325 1.299-4.075 2.23-8.152 4.456-12.229 6.683-.53.29-1.068.55-1.794.344L13.72 14.365M13.757 12.11L1.18.176c.62-.171 1.099.001 1.566.26l9.733 5.416c1.514.842 3.03 1.682 4.543 2.525.122.067.236.147.4.251l-3.665 3.484" transform="translate(-266 -1020) translate(139 998) translate(100) translate(27 22)"/>
                        <g transform="translate(-266 -1020) translate(139 998) translate(100) translate(27 22) translate(14.867 9.56)">
                            <mask id="47zqob848d" fill="#fff">
                                <use xlink:href="#70dlckw2ec"/>
                            </mask>
                            <path fill="#FFF" d="M.069 3.677C1.368 2.451 2.609 1.268 3.871.105c.1-.091.367-.115.49-.049 1.216.652 2.435 1.3 3.618 2.008 1.508.902 1.486 2.493-.027 3.358-1.167.667-2.349 1.307-3.533 1.942-.117.062-.36.064-.444-.014C2.677 6.15 1.397 4.932.069 3.677" mask="url(#47zqob848d)"/>
                        </g>
                    </g>
                </g>
            </g>
        </g>
    </g>
</svg>
