<svg xmlns="http://www.w3.org/2000/svg" xmlns:xlink="http://www.w3.org/1999/xlink" width="18.333" height="15" viewBox="0 0 18.333 15"><defs><clipPath id="a"><path d="M2.5,15A2.5,2.5,0,0,1,0,12.5V2.514Q0,2.5,0,2.477A2.5,2.5,0,0,1,2.5,0H15.834a2.5,2.5,0,0,1,2.5,2.475q0,.021,0,.042V12.5a2.5,2.5,0,0,1-2.5,2.5Zm-.833-2.5a.834.834,0,0,0,.833.833H15.834a.834.834,0,0,0,.833-.833V4.1L9.644,9.016a.834.834,0,0,1-.956,0L1.667,4.1Zm7.5-5.184,7.413-5.189a.834.834,0,0,0-.745-.461H2.5a.834.834,0,0,0-.745.461Z" transform="translate(-782.5 1216.5)" fill="#258aff"/></clipPath></defs><g transform="translate(782.5 -1216.5)"><path d="M2.5,15A2.5,2.5,0,0,1,0,12.5V2.514Q0,2.5,0,2.477A2.5,2.5,0,0,1,2.5,0H15.834a2.5,2.5,0,0,1,2.5,2.475q0,.021,0,.042V12.5a2.5,2.5,0,0,1-2.5,2.5Zm-.833-2.5a.834.834,0,0,0,.833.833H15.834a.834.834,0,0,0,.833-.833V4.1L9.644,9.016a.834.834,0,0,1-.956,0L1.667,4.1Zm7.5-5.184,7.413-5.189a.834.834,0,0,0-.745-.461H2.5a.834.834,0,0,0-.745.461Z" transform="translate(-782.5 1216.5)" fill="#258aff"/><g clip-path="url(#a)"><g transform="translate(-783.5 1213.5)"><rect width="20" height="20" fill="#258aff"/></g></g></g></svg>