<svg xmlns="http://www.w3.org/2000/svg" xmlns:xlink="http://www.w3.org/1999/xlink" width="24" height="30" viewBox="0 0 24 30">
    <defs>
        <path id="ln3aqh3dha" d="M0.374 0.011L6.242 0.011 6.242 6.717 0.374 6.717z"/>
    </defs>
    <g fill="none" fill-rule="evenodd">
        <g>
            <g>
                <g>
                    <path fill="#FEFEFE" d="M19.735 15.866c-.032-3.67 3.005-5.455 3.144-5.538-1.72-2.507-4.386-2.85-5.323-2.878-2.24-.235-4.412 1.34-5.552 1.34-1.164 0-2.92-1.317-4.813-1.278-2.437.038-4.716 1.448-5.966 3.638-2.58 4.466-.656 11.03 1.816 14.639 1.236 1.768 2.681 3.742 4.572 3.672 1.85-.076 2.54-1.179 4.773-1.179 2.212 0 2.86 1.18 4.79 1.136 1.985-.033 3.235-1.777 4.428-3.56 1.428-2.027 2.002-4.023 2.025-4.125-.047-.016-3.856-1.47-3.894-5.867" transform="translate(-163 -1017) translate(139 998) translate(24 19)"/>
                    <g transform="translate(-163 -1017) translate(139 998) translate(24 19) translate(11.368 .41)">
                        <mask id="zcsrlixdzb" fill="#fff">
                            <use xlink:href="#ln3aqh3dha"/>
                        </mask>
                        <path fill="#FEFEFE" d="M4.724 4.666C5.72 3.42 6.4 1.728 6.211.01c-1.44.064-3.24.997-4.278 2.213C1.016 3.296.196 5.053.408 6.706c1.617.121 3.278-.816 4.316-2.04" mask="url(#zcsrlixdzb)"/>
                    </g>
                </g>
            </g>
        </g>
    </g>
</svg>
