<svg xmlns="http://www.w3.org/2000/svg" width="70" height="83" viewBox="0 0 70 83">
    <defs>
        <linearGradient id="1w2gu7yrda" x1="47.274%" x2="55.102%" y1="100.84%" y2="3.091%">
            <stop offset="0%" stop-opacity=".8"/>
            <stop offset="100%" stop-color="#FFF" stop-opacity="0"/>
        </linearGradient>
    </defs>
    <g fill="none" fill-rule="evenodd">
        <g fill-rule="nonzero">
            <g>
                <g transform="translate(-178 -3481) translate(142 3437) translate(36 44)">
                    <circle cx="34.844" cy="47.833" r="34.844" fill="#4382FF" fill-opacity=".11"/>
                    <path fill="#4382FF" d="M60.667 24.39c-.769 5.777-3.855 10.993-8.55 14.447-6.19 4.566-10.467 11.262-11.702 18.851l-.1.623-13.576-2.214.04-.24c1.244-7.632-.432-15.513-4.936-21.8-5.627-7.853-5.332-18.494.722-26.022 6.054-7.529 16.383-10.1 25.261-6.29 8.878 3.81 14.128 13.07 12.84 22.645z"/>
                    <path fill="url(#1w2gu7yrda)" d="M52.118 38.834c-6.19 4.57-10.468 11.265-11.703 18.858l-.1.619-8.08-1.316c6.038-6.148 15.436-18.566 14.82-35.93C46.78 13.7 44.76 6.507 41.158.078c.72.061 1.449.162 2.178.298C51.748 1.96 58.421 8.38 60.33 16.725c1.908 8.345-1.313 17.027-8.202 22.109h-.01z" style="mix-blend-mode:soft-light"/>
                    <circle cx="33.467" cy="57.578" r="7.214" fill="#4382FF"/>
                    <path fill="#FFF" d="M26.019 52.022h15.669c1.755 0 3.177 1.423 3.177 3.178s-1.422 3.177-3.177 3.177h-15.67c-1.754 0-3.177-1.422-3.177-3.177 0-1.755 1.423-3.178 3.178-3.178z" transform="rotate(9.25 33.853 55.2)"/>
                    <path fill="#FFF" d="M27.04 45.754h15.668c1.755 0 3.178 1.423 3.178 3.178s-1.423 3.177-3.178 3.177H27.04c-1.754 0-3.177-1.422-3.177-3.177 0-1.755 1.423-3.178 3.177-3.178z" transform="rotate(9.25 34.874 48.932)"/>
                </g>
            </g>
        </g>
    </g>
</svg>
