<svg xmlns="http://www.w3.org/2000/svg" xmlns:xlink="http://www.w3.org/1999/xlink" width="19" height="19" viewBox="0 0 19 19">
    <defs>
        <path id="htbyvpptla" d="M172.573 3948.267c.011-.444-.297-.808-.709-.866-.862-.113-1.709-.324-2.525-.63-.305-.114-.648-.04-.876.185l-1.059 1.058c-.265.266-.675.32-1 .135-2.217-1.26-4.053-3.095-5.313-5.312-.186-.326-.13-.736.135-1.001l1.055-1.055c.229-.232.302-.575.187-.881-.304-.815-.515-1.662-.628-2.517-.059-.414-.415-.72-.842-.716H158.5c-.234 0-.457.098-.614.271-.158.173-.236.404-.216.624.26 2.446 1.092 4.796 2.433 6.866 1.214 1.91 2.833 3.53 4.75 4.748 2.055 1.332 4.393 2.164 6.813 2.427.234.022.466-.057.638-.215.173-.159.271-.383.27-.621v-2.5zm-6.347-1.431l1.001-.135c-.183-.104-.363-.213-.54-.326l-.461.46zm8.014 3.927c.003.704-.291 1.377-.81 1.853-.519.476-1.214.71-1.93.646-2.694-.293-5.281-1.213-7.548-2.684-2.117-1.345-3.912-3.14-5.253-5.25-1.48-2.284-2.4-4.884-2.689-7.603-.063-.699.17-1.392.644-1.91.473-.519 1.142-.814 1.844-.815h2.492c1.255-.012 2.325.908 2.501 2.158.098.738.278 1.462.537 2.157.344.914.124 1.944-.565 2.641l-.598.598c.98 1.537 2.284 2.841 3.822 3.821l.6-.6c.694-.687 1.724-.907 2.636-.564.697.26 1.422.44 2.167.539 1.253.177 2.176 1.262 2.15 2.526v2.487z"/>
    </defs>
    <g fill="none" fill-rule="evenodd">
        <g transform="translate(-156 -3935)">
            <use fill="#258AFF" fill-rule="nonzero" xlink:href="#htbyvpptla"/>
        </g>
    </g>
</svg>
